# xmcd CD database file generated by Grip 2.7
# 
# Track frame offsets:
#       150
#       12990
#       27922
#       41375
#       56520
#       70870
#       86155
#       103820
#       121857
#       137117
# 
# Disc length: 1992 seconds
# 
# Revision: 3
# Processed by: cddbd v1.4b41PL1 Copyright (c) Steve Scherf et al.
# Submitted via: Grip 2.7
# 
DISCID=8207c60a
DTITLE=Cab Calloway - Minnie the Moocher
DYEAR=1900
DGENRE=
TTITLE0=Jumpin' Jive
TTITLE1=Minnie the Moocher
TTITLE2=The Honeydripper
TTITLE3=Jungle Swing
TTITLE4=The Calloway Boogie
TTITLE5=Two Blocks Down Turn Left
TTITLE6=Stormy Weather
TTITLE7=This Is Always
TTITLE8=That Old Black Magic
TTITLE9=The Birth of Blues
EXTD=
EXTT0=
EXTT1=
EXTT2=
EXTT3=
EXTT4=
EXTT5=
EXTT6=
EXTT7=
EXTT8=
EXTT9=
PLAYORDER=
